<svg width="40" height="40" viewBox="0 0 40 40" fill="none" xmlns="http://www.w3.org/2000/svg">
    <rect width="100%" height="100%" fill="#519e52"/>
    <style>
    </style>
    <g transform="translate(4,10)">
        <path d="M9.00391 19.2L16.1039 0.399999H18.0039L10.9039 19.2H9.00391ZM0.00390589 19.2L7.10391 0.399999H9.00391L1.90391 19.2H0.00390589ZM27.4961 20.6C26.3628 20.6 25.3761 20.36 24.5361 19.88C23.6961 19.4133 23.0428 18.74 22.5761 17.86C22.1228 16.9933 21.8961 15.9733 21.8961 14.8V8C21.8961 6.2 22.3761 4.78667 23.3361 3.76C24.2961 2.72 25.6161 2.2 27.2961 2.2C28.8161 2.2 30.0094 2.64 30.8761 3.52C31.7561 4.38667 32.1961 5.58 32.1961 7.1V12.52C32.1961 13.56 31.9094 14.3867 31.3361 15C30.7628 15.6 29.9828 15.9 28.9961 15.9C28.0228 15.9 27.2428 15.6067 26.6561 15.02C26.0828 14.4333 25.7961 13.6667 25.7961 12.72V10.4C25.7961 9.41333 26.0294 8.65333 26.4961 8.12C26.9628 7.57333 27.6228 7.3 28.4761 7.3C29.0228 7.3 29.4761 7.40667 29.8361 7.62C30.1961 7.83333 30.4361 8.12667 30.5561 8.5H30.5961V7.1C30.5961 5.96667 30.3094 5.1 29.7361 4.5C29.1761 3.9 28.3628 3.6 27.2961 3.6C26.0961 3.6 25.1628 3.98667 24.4961 4.76C23.8294 5.53333 23.4961 6.61333 23.4961 8V14.8C23.4961 16.1333 23.8494 17.18 24.5561 17.94C25.2761 18.7133 26.2561 19.1 27.4961 19.1H29.6961V20.6H27.4961ZM28.9961 14.56C29.5028 14.56 29.8961 14.4 30.1761 14.08C30.4561 13.7467 30.5961 13.2933 30.5961 12.72V10.38C30.5961 9.79333 30.4561 9.34667 30.1761 9.04C29.8961 8.72 29.5028 8.56 28.9961 8.56C28.4894 8.56 28.0961 8.72 27.8161 9.04C27.5361 9.36 27.3961 9.81333 27.3961 10.4V12.72C27.3961 13.2933 27.5361 13.7467 27.8161 14.08C28.0961 14.4 28.4894 14.56 28.9961 14.56Z" fill="white"/>
    </g>
</svg>